<svg xmlns="http://www.w3.org/2000/svg" width="50" height="50" viewBox="0 0 50 50">
  <g id="Group_1603" data-name="Group 1603" transform="translate(-1048 -646)">
    <rect id="Rectangle_408" data-name="Rectangle 408" width="50" height="50" transform="translate(1048 646)" fill="none"/>
    <g id="Group_1544" data-name="Group 1544" transform="translate(-4721.996 -1029.113)">
      <g id="Group_1537" data-name="Group 1537" transform="translate(5778.528 1680.113)">
        <g id="Group_1536" data-name="Group 1536">
          <path id="Path_2477" data-name="Path 2477" d="M5794.279,1698.523l-14.895-10.822a17.855,17.855,0,0,1,14.895-7.588Z" transform="translate(-5779.385 -1680.113)" fill="#2fb6e1"/>
        </g>
      </g>
      <g id="Group_1542" data-name="Group 1542" transform="translate(5776.151 1682.58)">
        <g id="Group_1539" data-name="Group 1539" transform="translate(0 7.588)">
          <g id="Group_1538" data-name="Group 1538">
            <path id="Path_2478" data-name="Path 2478" d="M5794.614,1704.393l-10.822,14.894a18.411,18.411,0,0,1-4.073-25.716h0Z" transform="translate(-5776.203 -1693.571)" fill="#ccc"/>
          </g>
        </g>
        <g id="Group_1541" data-name="Group 1541" transform="translate(7.59)">
          <g id="Group_1540" data-name="Group 1540">
            <path id="Path_2479" data-name="Path 2479" d="M5797.183,1701.826v-18.411a18.411,18.411,0,0,1,0,36.821,17.644,17.644,0,0,1-10.822-3.516Z" transform="translate(-5786.361 -1683.415)" fill="#93a1a1"/>
          </g>
        </g>
      </g>
      <g id="Group_1543" data-name="Group 1543" transform="translate(5775.996 1682.425)">
        <path id="Path_2480" data-name="Path 2480" d="M5794.563,1683.209h-.155v18.264l-14.775-10.734-.092.124a18.568,18.568,0,0,0,4.108,25.928,17.719,17.719,0,0,0,10.914,3.545,18.566,18.566,0,1,0,.456-37.129C5794.866,1683.207,5794.714,1683.207,5794.563,1683.209Zm0,36.822a17.437,17.437,0,0,1-10.73-3.486,18.256,18.256,0,0,1-4.131-25.379l15.014,10.908v-18.558a18.258,18.258,0,1,1-.155,36.515Z" transform="translate(-5775.996 -1683.208)" fill="#93a1a1"/>
      </g>
    </g>
  </g>
</svg>
