<svg id="Layer_1" data-name="Layer 1" xmlns="http://www.w3.org/2000/svg" viewBox="0 0 165 165">
  <defs>
    <style>
      .cls-1 {
        opacity: 0.2;
      }

      .cls-2 {
        fill: #2fb6e1;
      }

      .cls-3 {
        fill: #fb8c3a;
      }

      .cls-4 {
        fill: #93a1a1;
      }
    </style>
  </defs>
  <g>
    <g>
      <g class="cls-1">
        <path class="cls-2" d="M82.5,11.88A70.62,70.62,0,1,1,11.88,82.5,70.7,70.7,0,0,1,82.5,11.88M82.5,0A82.5,82.5,0,1,0,165,82.5,82.5,82.5,0,0,0,82.5,0Z" transform="translate(0 0)"/>
      </g>
      <path class="cls-3" d="M15.47,60.24a70.63,70.63,0,1,0,67-48.36V0A82.42,82.42,0,1,1,4.16,56.57Z" transform="translate(0 0)"/>
    </g>
    <g>
      <path class="cls-4" d="M53.23,78.45a9.8,9.8,0,0,1,5.08,3.22,8.88,8.88,0,0,1,1.74,5.63,9.8,9.8,0,0,1-.89,4.25,9.12,9.12,0,0,1-2.5,3.24,11.41,11.41,0,0,1-3.86,2.06,17.38,17.38,0,0,1-9.9,0A11.41,11.41,0,0,1,39,94.79a9.12,9.12,0,0,1-2.5-3.24,10,10,0,0,1-.89-4.25,8.88,8.88,0,0,1,1.74-5.63,9.79,9.79,0,0,1,5.09-3.22,8.44,8.44,0,0,1-4.18-3.14,8.7,8.7,0,0,1-1.4-5,8.9,8.9,0,0,1,.79-3.74,8.77,8.77,0,0,1,2.22-3,10.46,10.46,0,0,1,3.47-2,14.27,14.27,0,0,1,8.95,0,10.42,10.42,0,0,1,3.46,2,8.77,8.77,0,0,1,2.22,3,8.9,8.9,0,0,1,.79,3.74,8.7,8.7,0,0,1-1.4,5A8.41,8.41,0,0,1,53.23,78.45ZM47.85,93.7a8.92,8.92,0,0,0,3-.48,6.46,6.46,0,0,0,2.25-1.33,5.71,5.71,0,0,0,1.4-2.07,7.89,7.89,0,0,0-.1-5.63,5.85,5.85,0,0,0-1.55-2.08,6.38,6.38,0,0,0-2.28-1.2,10,10,0,0,0-5.52,0,6.38,6.38,0,0,0-2.28,1.2,5.72,5.72,0,0,0-1.54,2.08,7.42,7.42,0,0,0-.56,3,7,7,0,0,0,.48,2.62,5.47,5.47,0,0,0,1.4,2.07,6.28,6.28,0,0,0,2.25,1.33A8.82,8.82,0,0,0,47.85,93.7Zm0-29.07a7.26,7.26,0,0,0-2.71.46,5.53,5.53,0,0,0-1.94,1.26A5.18,5.18,0,0,0,42,68.2a6.41,6.41,0,0,0-.39,2.25A7.7,7.7,0,0,0,42,72.74a5.32,5.32,0,0,0,1.07,2A5.23,5.23,0,0,0,45,76.1a8,8,0,0,0,5.73,0,5.19,5.19,0,0,0,1.93-1.39,5.32,5.32,0,0,0,1.07-2,7.7,7.7,0,0,0,.34-2.29,6.41,6.41,0,0,0-.39-2.25,5.18,5.18,0,0,0-1.16-1.85,5.53,5.53,0,0,0-1.94-1.26A7.26,7.26,0,0,0,47.85,64.63Z" transform="translate(0 0)"/>
      <path class="cls-4" d="M89.9,79.22a29.4,29.4,0,0,1-1,8.16,17.09,17.09,0,0,1-2.78,5.71A11.08,11.08,0,0,1,82,96.45a12.54,12.54,0,0,1-10.27,0,11,11,0,0,1-4.14-3.36,17.06,17.06,0,0,1-2.75-5.71,29.42,29.42,0,0,1-1-8.16,29.47,29.47,0,0,1,1-8.16,16.93,16.93,0,0,1,2.75-5.72A11.17,11.17,0,0,1,71.69,62,12.64,12.64,0,0,1,82,62a11.2,11.2,0,0,1,4.15,3.37,17,17,0,0,1,2.78,5.72A29.45,29.45,0,0,1,89.9,79.22Zm-5.05,0a29.32,29.32,0,0,0-.66-6.77,13.73,13.73,0,0,0-1.78-4.39,6.55,6.55,0,0,0-2.56-2.36,6.89,6.89,0,0,0-6,0,6.55,6.55,0,0,0-2.56,2.36,13.74,13.74,0,0,0-1.77,4.39,30,30,0,0,0-.65,6.77A30,30,0,0,0,69.47,86a13.67,13.67,0,0,0,1.77,4.38,6.56,6.56,0,0,0,2.56,2.34,6.89,6.89,0,0,0,6,0,6.56,6.56,0,0,0,2.56-2.34A13.67,13.67,0,0,0,84.19,86,29.42,29.42,0,0,0,84.85,79.22Z" transform="translate(0 0)"/>
      <path class="cls-4" d="M109.55,70a10,10,0,0,1-.66,3.75,8.57,8.57,0,0,1-1.76,2.79,7.67,7.67,0,0,1-2.57,1.75,7.78,7.78,0,0,1-3.06.61,8.17,8.17,0,0,1-3.19-.61,7.45,7.45,0,0,1-2.54-1.75,8.25,8.25,0,0,1-1.68-2.79A10.68,10.68,0,0,1,93.47,70a11,11,0,0,1,.62-3.82,8.39,8.39,0,0,1,1.68-2.84,7.27,7.27,0,0,1,2.54-1.78,8.65,8.65,0,0,1,6.38,0,7.4,7.4,0,0,1,2.55,1.78,8.27,8.27,0,0,1,1.7,2.84A11,11,0,0,1,109.55,70Zm12.5-7.88a3.14,3.14,0,0,1,.64-.56,1.82,1.82,0,0,1,1-.24h3.52L100.88,96.4a2.34,2.34,0,0,1-.66.56,1.79,1.79,0,0,1-.9.21H95.7ZM105.75,70a9.22,9.22,0,0,0-.34-2.71,5.07,5.07,0,0,0-.91-1.8,3.36,3.36,0,0,0-1.35-1,4.55,4.55,0,0,0-3.3,0,3.33,3.33,0,0,0-1.34,1,5,5,0,0,0-.88,1.8A9.6,9.6,0,0,0,97.3,70a9.23,9.23,0,0,0,.33,2.64,4.92,4.92,0,0,0,.88,1.76,3.17,3.17,0,0,0,1.34,1,4.55,4.55,0,0,0,3.3,0,3.2,3.2,0,0,0,1.35-1,5,5,0,0,0,.91-1.76A8.86,8.86,0,0,0,105.75,70ZM129.52,88.7a10,10,0,0,1-.66,3.75,8.57,8.57,0,0,1-1.76,2.79A7.63,7.63,0,0,1,124.54,97a7.86,7.86,0,0,1-3.07.61,8.08,8.08,0,0,1-3.18-.61,7.36,7.36,0,0,1-2.54-1.75,8.11,8.11,0,0,1-1.69-2.79,10.69,10.69,0,0,1-.61-3.75,11,11,0,0,1,.61-3.82A8.25,8.25,0,0,1,115.75,82a7,7,0,0,1,2.54-1.77,8.75,8.75,0,0,1,6.37,0A7.06,7.06,0,0,1,127.21,82a8.12,8.12,0,0,1,1.7,2.84A11,11,0,0,1,129.52,88.7Zm-3.8,0a9.48,9.48,0,0,0-.33-2.7,5.11,5.11,0,0,0-.92-1.79,3.4,3.4,0,0,0-1.34-1,4.6,4.6,0,0,0-3.32,0,3.27,3.27,0,0,0-1.32,1A5.08,5.08,0,0,0,117.6,86a9.48,9.48,0,0,0-.33,2.7,9.16,9.16,0,0,0,.33,2.65,4.88,4.88,0,0,0,.89,1.75,3.11,3.11,0,0,0,1.32,1,4.6,4.6,0,0,0,3.32,0,3.23,3.23,0,0,0,1.34-1,4.91,4.91,0,0,0,.92-1.75A9.16,9.16,0,0,0,125.72,88.7Z" transform="translate(0 0)"/>
    </g>
  </g>
</svg>
